Coordinates
version=1
nRows=6
nColumns=36
inDegrees=yes

Units are S.I. units (second, meters, Newtons, ...)
If the header above contains a line with 'inDegrees', this indicates whether rotational values are in degrees (yes) or radians (no).

endheader
time	pelvis_tilt	pelvis_list	pelvis_rotation	pelvis_tx	pelvis_ty	pelvis_tz	hip_flexion_r	hip_adduction_r	hip_rotation_r	knee_angle_r	knee_angle_r_beta	ankle_angle_r	subtalar_angle_r	mtp_angle_r	hip_flexion_l	hip_adduction_l	hip_rotation_l	knee_angle_l	knee_angle_l_beta	ankle_angle_l	subtalar_angle_l	mtp_angle_l	lumbar_extension	lumbar_bending	lumbar_rotation	arm_flex_r	arm_add_r	arm_rot_r	elbow_flex_r	pro_sup_r	arm_flex_l	arm_add_l	arm_rot_l	elbow_flex_l	pro_sup_l
      7.00000000	    -55.79362129	    -13.74948709	    -17.75823111	      0.80449877	      0.76561337	      0.05063333	     99.86490500	     17.84937150	    -32.04798012	      0.33465501	      0.00584083	    -20.58724238	    -34.66675803	     -7.49999987	     99.85711987	     -9.77272367	     18.69730267	     48.39181584	      0.84459652	      6.28915786	    -33.75162596	     -7.49999987	     59.39224911	     12.32690121	     -3.52556335	     17.04129842	     11.52571029	     75.29051411	    118.46840917	    107.28575110	      0.00459602	     14.59693725	     21.82803089	    113.39243050	    105.18734473
      7.01666670	    -57.66363169	    -11.57802389	    -17.30413474	      0.80774340	      0.76517601	      0.05001831	    102.39190465	     16.90646102	    -36.53791412	      0.24309864	      0.00424287	    -15.78610758	    -34.68570020	     -7.49999987	    100.90051965	     -8.80779682	     17.71706728	     47.01084395	      0.82049401	      5.71589276	    -33.80429432	     -7.49999987	     63.25691462	     10.18927453	     -2.38652653	     16.23986898	     11.84643389	     74.73610926	    118.58770499	    107.52176307	     -1.30681011	     14.28172921	     26.79651976	    114.72435289	    105.99841069
      7.03333330	    -58.50562008	     -8.76568316	    -15.95067112	      0.79841821	      0.76052216	      0.04801575	    103.85219411	     15.55453257	    -38.80200625	      0.21449241	      0.00374360	    -10.43714298	    -34.70594337	     -7.49999987	    101.00108876	     -7.07761300	     16.27863659	     45.24781615	      0.78972337	      6.55410366	    -33.79108173	     -7.49999987	     64.90489034	      7.01521471	     -1.08737301	     16.23759045	     12.51526628	     74.82123293	    118.36313353	    105.65523817	     -1.24771639	     13.53742213	     29.56333957	    115.83100675	    104.39864918
      7.05000000	    -56.69523205	     -8.76153398	    -15.30594679	      0.79605510	      0.76167991	      0.04716325	    102.47758971	     15.23058848	    -38.94009635	      0.24495313	      0.00427524	     -6.74345506	    -34.70704153	     -7.49999987	     99.43076776	     -6.55076047	     16.30721031	     45.68904865	      0.79742433	      8.73428736	    -33.42264687	     -7.49999987	     61.37016631	      6.25230372	     -0.93975469	     17.41670871	     12.34792395	     75.72037162	    118.53933077	    107.44323170	      0.47623719	     12.61405606	     34.03711028	    116.11650635	    106.99083912
      7.06666670	    -56.15948719	     -8.49045451	    -15.08663700	      0.79565680	      0.76042154	      0.04644607	    102.03416501	     15.09716875	    -39.22633385	      0.27697653	      0.00483415	     -1.29209101	    -34.71820800	     -7.49999987	     99.15628227	     -6.28790507	     16.80543286	     45.40198818	      0.79241418	      7.59178576	    -33.42076692	     -7.49999987	     59.89035805	      5.86754847	     -1.44122394	     18.28666888	     12.52864478	     76.62186969	    118.77853072	    107.86185868	      1.80262904	     11.69165978	     38.68265750	    117.21249198	    108.11602529
      7.08333330	    -54.77157174	     -9.92571978	    -15.33655161	      0.79624728	      0.76431759	      0.04573920	    100.42885481	     15.48569163	    -39.23757130	      0.37822693	      0.00660131	     -0.42264722	    -34.72638382	     -7.49999987	     98.17287687	     -6.87988242	     17.87799672	     45.89710289	      0.80105556	      7.30371369	    -33.05634934	     -7.49999987	     56.93885423	      7.19701900	     -2.53764967	     19.17662845	     12.22122285	     77.43839260	    118.72451690	    108.01212877	      3.44865136	     11.07875433	     42.08789890	    116.76725858	    108.82192902
